<?xml version="1.0" encoding="UTF-8" standalone="no"?>
<svg
   aria-hidden="true"
   focusable="false"
   data-prefix="fas"
   data-icon="tower-broadcast"
   class="svg-inline--fa fa-tower-broadcast"
   role="img"
   viewBox="0 0 512 512"
   version="1.1"
   id="svg233"
   sodipodi:docname="logo.svg"
   inkscape:version="1.1.1 (3bf5ae0d25, 2021-09-20)"
   inkscape:export-filename="C:\Users\harla\Downloads\logo192.png"
   inkscape:export-xdpi="36"
   inkscape:export-ydpi="36"
   xmlns:inkscape="http://www.inkscape.org/namespaces/inkscape"
   xmlns:sodipodi="http://sodipodi.sourceforge.net/DTD/sodipodi-0.dtd"
   xmlns="http://www.w3.org/2000/svg"
   xmlns:svg="http://www.w3.org/2000/svg">
  <defs
     id="defs237" />
  <sodipodi:namedview
     id="namedview235"
     pagecolor="#ffffff"
     bordercolor="#666666"
     borderopacity="1.0"
     inkscape:pageshadow="2"
     inkscape:pageopacity="0.0"
     inkscape:pagecheckerboard="0"
     showgrid="false"
     inkscape:zoom="1.1062354"
     inkscape:cx="34.350736"
     inkscape:cy="220.56788"
     inkscape:window-width="1271"
     inkscape:window-height="1032"
     inkscape:window-x="234"
     inkscape:window-y="0"
     inkscape:window-maximized="0"
     inkscape:current-layer="svg233" />
  <path
     fill="currentColor"
     d="m 241.19059,46.3589 c -7.54032,-4.958431 -17.0307,-1.740478 -21.19088,7.255855 -6.95529,14.859812 -10.59543,31.723116 -10.59543,48.741125 0,14.72057 2.62025,28.96155 7.78732,42.25107 2.63065,6.78941 8.27484,10.7755 14.17059,10.7755 2.19383,0 4.41822,-0.55595 6.53276,-1.71652 7.84583,-4.27847 11.22596,-15.95901 7.58581,-24.62272 -3.25013,-8.3543 -4.8752,-17.32743 -4.8752,-26.68733 0,-10.775495 2.30565,-21.419491 6.66277,-30.794857 4.19268,-8.93446 1.46257,-20.243693 -6.07774,-25.202123 z M 177.29945,2.5398408 c -10.68643,-5.1695992 -22.77043,1.0156658 -27.08011,13.6585042 -9.03733,26.563558 -13.61806,54.666486 -13.61806,82.831287 0,29.549438 4.58073,57.706518 13.61806,84.239138 3.26963,9.66931 11.06346,15.47092 19.29279,15.47092 2.58712,0 5.23922,-0.54149 7.78732,-1.77918 10.65395,-5.18274 15.79566,-19.57069 11.47948,-32.25684 -7.02029,-20.65368 -10.57594,-42.46766 -10.57594,-64.977845 0,-22.479247 3.555,-44.324175 10.57594,-64.970116 C 193.09511,22.092767 187.9534,7.664589 177.29945,2.5398408 Z M 497.36614,16.198345 C 493.07011,3.5044627 480.96597,-2.6065545 470.28602,2.5375283 459.63208,7.6622652 454.49037,22.092767 458.80655,34.755709 c 7.03329,20.645941 10.60844,42.498606 10.60844,64.970116 0,22.479225 -3.555,44.331915 -10.57594,64.281635 -4.30968,13.38236 0.82554,27.77031 11.48597,32.95305 2.53511,1.23769 5.20022,1.77918 7.80033,1.77918 8.22934,0 16.01665,-5.84956 19.28629,-15.47092 8.46985,-26.53262 13.60506,-54.6897 13.60506,-84.239138 0,-28.164801 -5.13521,-56.267729 -13.65056,-82.831287 z m -87.62361,29.557188 c -7.81982,4.302462 -11.23247,15.323945 -7.61832,24.629699 3.26314,8.3775 4.8882,17.35063 4.8882,26.710531 0,10.783227 -2.30564,21.419487 -6.66277,30.794867 -4.17447,8.96538 -1.4424,20.28236 6.094,25.23306 2.3973,1.57108 4.98701,2.32063 7.54681,2.32063 5.48493,0 10.81645,-3.45775 13.66357,-9.56876 6.91953,-14.89849 10.55968,-31.76178 10.55968,-48.779797 0,-14.720578 -2.62025,-28.953822 -7.78732,-42.251071 -3.58815,-9.352162 -12.94853,-13.366872 -20.68385,-9.089159 z m -76.96317,5.585001 c -26.84611,-6.706647 -50.57208,17.54402 -50.57208,48.385291 0,18.278875 8.41785,34.066945 20.80086,42.637825 v 229.66577 c 0,13.66855 9.31488,24.75347 20.80085,24.75347 11.48597,0 20.80086,-11.08492 20.80086,-24.75347 V 142.3482 c 15.11312,-10.47382 24.324,-31.68444 19.5203,-55.060994 C 360.4705,69.487921 347.85998,55.099967 332.77936,51.340534 Z"
     id="path231"
     style="stroke-width:0.709102" />
  <path
     fill="currentColor"
     d="M 261.09646,280.90857 177.48025,493.7446 c -4.90829,11.63293 -15.25076,18.6042 -26.4697,18.6042 -16.85179,0 -28.05905,-14.00317 -28.05905,-28.55191 V 387.35083 H 29.471961 c -13.404301,0 -24.9329405,-9.83252 -27.515636,-23.49016 -2.59262794,-13.63945 4.4922533,-26.73332 16.898539,-32.54675 L 224.00966,244.56703 c 10.43595,-4.45132 22.46711,-1.93257 30.44892,6.36507 8.50771,6.65605 10.96185,19.11947 6.63788,29.97647 z"
     id="path2"
     style="stroke-width:0.595159" />
</svg>
